<?xml version="1.0" encoding="UTF-8" standalone="no"?>
<svg width="20px" height="19px" viewBox="0 0 20 19" version="1.1" xmlns="http://www.w3.org/2000/svg" xmlns:xlink="http://www.w3.org/1999/xlink">
    <!-- Generator: Sketch 41.2 (35397) - http://www.bohemiancoding.com/sketch -->
    <title>Shape</title>
    <desc>Created with Sketch.</desc>
    <defs></defs>
    <g id="Page-1" stroke="none" stroke-width="1" fill="none" fill-rule="evenodd">
        <g id="like" fill="#000000">
            <path d="M14.5,0 C12.76,0 11.09,0.81 10,2.09 C8.91,0.81 7.24,0 5.5,0 C2.42,0 0,2.42 0,5.5 C0,9.28 3.4,12.36 8.55,17.04 L10,18.35 L11.45,17.03 C16.6,12.36 20,9.28 20,5.5 C20,2.42 17.58,0 14.5,0 Z M10.1,15.55 L10,15.65 L9.9,15.55 C5.14,11.24 2,8.39 2,5.5 C2,3.5 3.5,2 5.5,2 C7.04,2 8.54,2.99 9.07,4.36 L10.94,4.36 C11.46,2.99 12.96,2 14.5,2 C16.5,2 18,3.5 18,5.5 C18,8.39 14.86,11.24 10.1,15.55 Z" id="Shape"></path>
        </g>
    </g>
</svg>