<?xml version="1.0" encoding="UTF-8" standalone="no"?>
<svg width="320px" height="320px" viewBox="0 0 320 320" version="1.1" xmlns="http://www.w3.org/2000/svg" xmlns:xlink="http://www.w3.org/1999/xlink">
    <!-- Generator: Sketch 41.2 (35397) - http://www.bohemiancoding.com/sketch -->
    <title>logo</title>
    <desc>Created with Sketch.</desc>
    <defs></defs>
    <g id="Page-1" stroke="none" stroke-width="1" fill="none" fill-rule="evenodd">
        <g id="logo">
            <rect id="Rectangle" fill="#1ABC9C" x="0" y="0" width="320" height="320" rx="38"></rect>
            <path d="M159.61,161.444421 L210.938963,72.2941159 C211.659374,71.3936032 212.875047,69.9528046 214.586021,67.9716768 C216.296995,65.990549 218.953468,65 222.555518,65 L240.925884,65 C242.907012,65 244.61796,65.7203993 246.05878,67.1612195 C247.499601,68.6020397 248.22,70.3129881 248.22,72.2941159 L248.22,246.812591 C248.22,248.793719 247.499601,250.504668 246.05878,251.945488 C244.61796,253.386308 242.907012,254.106707 240.925884,254.106707 L219.043537,254.106707 C217.062409,254.106707 215.35146,253.386308 213.91064,251.945488 C212.46982,250.504668 211.749421,248.793719 211.749421,246.812591 L211.749421,141.182988 L176.629604,201.967287 C175.729091,203.408107 174.468392,204.89393 172.84747,206.424802 C171.226547,207.955673 169.155399,208.721098 166.633963,208.721098 L152.586037,208.721098 C150.064601,208.721098 147.993453,207.955673 146.37253,206.424802 C144.751608,204.89393 143.490909,203.408107 142.590396,201.967287 L107.470579,141.182988 L107.470579,246.812591 C107.470579,248.793719 106.75018,250.504668 105.30936,251.945488 C103.86854,253.386308 102.157591,254.106707 100.176463,254.106707 L78.2941159,254.106707 C76.3129881,254.106707 74.6020397,253.386308 73.1612195,251.945488 C71.7203993,250.504668 71,248.793719 71,246.812591 L71,72.2941159 C71,70.3129881 71.7203993,68.6020397 73.1612195,67.1612195 C74.6020397,65.7203993 76.3129881,65 78.2941159,65 L96.6644817,65 C100.266532,65 102.923005,65.990549 104.633979,67.9716768 C106.344953,69.9528046 107.560626,71.3936032 108.281037,72.2941159 L159.61,161.444421 Z" id="M" fill="#FFFFFF"></path>
        </g>
    </g>
</svg>